<svg width="35" height="34" viewBox="0 0 35 34" fill="none" xmlns="http://www.w3.org/2000/svg">
<path d="M14.8812 2.27783L16.6153 0.549014C17.3496 -0.183006 18.537 -0.183006 19.2635 0.549014L34.4493 15.68C35.1836 16.412 35.1836 17.5957 34.4493 18.32L19.2713 33.451C18.537 34.183 17.3496 34.183 16.6231 33.451L14.889 31.7222C14.1469 30.9824 14.1625 29.7753 14.9202 29.0511L24.3254 20.1189L1.87479 20.1189C0.835841 20.1189 -8.43001e-07 19.2856 -7.97728e-07 18.2499L-6.888e-07 15.7579C-6.43527e-07 14.7222 0.835842 13.8889 1.87479 13.8889L24.3254 13.8889L14.9124 4.94892C14.1469 4.22469 14.1312 3.01764 14.8812 2.27783Z" fill="white"/>
</svg>
