<svg width="16" height="16" viewBox="0 0 16 16" fill="none" xmlns="http://www.w3.org/2000/svg">
<path d="M11.7453 3.97875L12.714 3.01008L13.6567 3.95275L12.688 4.92141C13.5366 5.9835 13.9994 7.30229 14.0005 8.66176C14.0016 10.0212 13.5411 11.3408 12.6942 12.4043C11.8474 13.4678 10.6645 14.2122 9.33926 14.5155C8.01406 14.8188 6.62513 14.6631 5.39998 14.0739C4.17484 13.4847 3.18611 12.4968 2.59576 11.2722C2.00541 10.0476 1.84844 8.65885 2.15055 7.33337C2.45267 6.00789 3.19596 4.8243 4.25867 3.97648C5.32139 3.12866 6.64052 2.66687 8 2.66675C9.41667 2.66675 10.7187 3.15741 11.7453 3.97875ZM8 13.3334C8.61283 13.3334 9.21967 13.2127 9.78585 12.9782C10.352 12.7437 10.8665 12.3999 11.2998 11.9666C11.7332 11.5332 12.0769 11.0188 12.3114 10.4526C12.546 9.88642 12.6667 9.27958 12.6667 8.66675C12.6667 8.05391 12.546 7.44708 12.3114 6.88089C12.0769 6.31471 11.7332 5.80026 11.2998 5.36692C10.8665 4.93358 10.352 4.58983 9.78585 4.35531C9.21967 4.12079 8.61283 4.00008 8 4.00008C6.76232 4.00008 5.57534 4.49175 4.70017 5.36692C3.825 6.24209 3.33333 7.42907 3.33333 8.66675C3.33333 9.90443 3.825 11.0914 4.70017 11.9666C5.57534 12.8417 6.76232 13.3334 8 13.3334ZM7.33333 5.33342H8.66667V9.33342H7.33333V5.33342ZM5.33333 0.666748H10.6667V2.00008H5.33333V0.666748Z" fill="black"/>
</svg>
