<svg width="40" height="40" viewBox="0 0 40 40" fill="none" xmlns="http://www.w3.org/2000/svg">
<path d="M15 4.99984V1.6665H25V4.99984H15ZM18.3333 23.3332H21.6667V13.3332H18.3333V23.3332ZM20 36.6665C17.9444 36.6665 16.0067 36.2709 14.1867 35.4798C12.3667 34.6887 10.7767 33.6121 9.41667 32.2498C8.05667 30.8876 6.98056 29.2971 6.18833 27.4782C5.39611 25.6593 5 23.7221 5 21.6665C5 19.6109 5.39611 17.6732 6.18833 15.8532C6.98056 14.0332 8.05667 12.4432 9.41667 11.0832C10.7767 9.72317 12.3672 8.64706 14.1883 7.85484C16.0094 7.06261 17.9467 6.6665 20 6.6665C21.7222 6.6665 23.375 6.94428 24.9583 7.49984C26.5417 8.05539 28.0278 8.86095 29.4167 9.9165L31.75 7.58317L34.0833 9.9165L31.75 12.2498C32.8056 13.6387 33.6111 15.1248 34.1667 16.7082C34.7222 18.2915 35 19.9443 35 21.6665C35 23.7221 34.6039 25.6598 33.8117 27.4798C33.0194 29.2998 31.9433 30.8898 30.5833 32.2498C29.2233 33.6098 27.6328 34.6865 25.8117 35.4798C23.9906 36.2732 22.0533 36.6687 20 36.6665Z" fill="white"/>
</svg>
