<svg width="12" height="12" viewBox="0 0 12 12" fill="none" xmlns="http://www.w3.org/2000/svg">
<path fill-rule="evenodd" clip-rule="evenodd" d="M4.125 4.5C4.42337 4.5 4.70952 4.38147 4.9205 4.1705C5.13147 3.95952 5.25 3.67337 5.25 3.375C5.25 3.07663 5.13147 2.79048 4.9205 2.5795C4.70952 2.36853 4.42337 2.25 4.125 2.25C3.82663 2.25 3.54048 2.36853 3.3295 2.5795C3.11853 2.79048 3 3.07663 3 3.375C3 3.67337 3.11853 3.95952 3.3295 4.1705C3.54048 4.38147 3.82663 4.5 4.125 4.5ZM4.125 5.625C4.72174 5.625 5.29403 5.38795 5.71599 4.96599C6.13795 4.54403 6.375 3.97174 6.375 3.375C6.375 2.77826 6.13795 2.20597 5.71599 1.78401C5.29403 1.36205 4.72174 1.125 4.125 1.125C3.52826 1.125 2.95597 1.36205 2.53401 1.78401C2.11205 2.20597 1.875 2.77826 1.875 3.375C1.875 3.97174 2.11205 4.54403 2.53401 4.96599C2.95597 5.38795 3.52826 5.625 4.125 5.625ZM1.85325 7.7895C1.2705 8.1945 1.125 8.58675 1.125 8.769C1.125 9.1035 1.3965 9.375 1.731 9.375H6.519C6.6796 9.3746 6.83351 9.31063 6.94707 9.19707C7.06063 9.08351 7.1246 8.9296 7.125 8.769C7.125 8.586 6.9795 8.19375 6.39675 7.7895C5.844 7.40625 5.03925 7.125 4.125 7.125C3.21075 7.125 2.406 7.40625 1.85325 7.7895ZM0 8.769C0 7.3845 1.85625 6 4.125 6C5.01 6 5.8335 6.21075 6.50775 6.5505C7.15342 6.1855 7.88332 5.99572 8.625 6C10.4812 6 12 7.1535 12 8.30775C12 8.69026 11.848 9.0571 11.5776 9.32757C11.3071 9.59805 10.9403 9.75 10.5577 9.75H7.9455C7.6335 10.203 7.11075 10.5 6.519 10.5H1.731C1.27203 10.4996 0.831976 10.3171 0.507437 9.99256C0.182897 9.66802 0.000397203 9.22797 0 8.769ZM8.24325 8.625H10.5577C10.7332 8.625 10.875 8.4825 10.875 8.30775C10.875 8.2305 10.803 7.95375 10.359 7.64025C9.9435 7.3455 9.32775 7.125 8.625 7.125C8.23725 7.125 7.87575 7.1925 7.56 7.302C7.9545 7.7025 8.2005 8.1615 8.24325 8.625ZM9.375 3.75C9.375 3.94891 9.29598 4.13968 9.15533 4.28033C9.01468 4.42098 8.82391 4.5 8.625 4.5C8.42609 4.5 8.23532 4.42098 8.09467 4.28033C7.95402 4.13968 7.875 3.94891 7.875 3.75C7.875 3.55109 7.95402 3.36032 8.09467 3.21967C8.23532 3.07902 8.42609 3 8.625 3C8.82391 3 9.01468 3.07902 9.15533 3.21967C9.29598 3.36032 9.375 3.55109 9.375 3.75ZM10.5 3.75C10.5 4.24728 10.3025 4.72419 9.95082 5.07583C9.59919 5.42746 9.12228 5.625 8.625 5.625C8.12772 5.625 7.65081 5.42746 7.29917 5.07583C6.94754 4.72419 6.75 4.24728 6.75 3.75C6.75 3.25272 6.94754 2.77581 7.29917 2.42417C7.65081 2.07254 8.12772 1.875 8.625 1.875C9.12228 1.875 9.59919 2.07254 9.95082 2.42417C10.3025 2.77581 10.5 3.25272 10.5 3.75Z" fill="black"/>
</svg>
